<svg width="40" height="40" viewBox="0 0 40 40" fill="none" xmlns="http://www.w3.org/2000/svg">
<rect width="40" height="40" rx="5" fill="#88A2FF"/>
<path d="M17.9835 10.0571C17.6512 10.1839 17.3889 10.4331 17.2359 10.7653C17.2141 10.8134 17.1878 12.3872 17.1747 14.3938L17.1529 17.9347L15.8632 17.9566C14.6654 17.9785 14.5649 17.9828 14.4206 18.0659C14.0359 18.2932 13.8698 18.8353 14.0665 19.2331C14.1277 19.3642 14.9671 20.2342 16.8775 22.1402C19.7408 24.9948 19.6884 24.9511 20.06 24.9511C20.4316 24.9511 20.3791 24.9948 23.2425 22.1402C25.0523 20.3304 25.9922 19.3599 26.049 19.2418C26.2414 18.8528 26.1102 18.3632 25.7474 18.1096L25.5594 17.9785L24.2654 17.9566L22.9671 17.9347L22.9452 14.3938C22.9277 11.8582 22.9102 10.8222 22.8709 10.7435C22.7485 10.4724 22.5518 10.2714 22.2851 10.1358L22.0141 10.0003L20.0643 10.0047C18.6829 10.0047 18.0753 10.0222 17.9835 10.0571Z" fill="white"/>
<path d="M9.74757 19.5781C9.5115 19.6219 9.26669 19.7792 9.11369 19.9803L9.00003 20.129V23.224C9.00003 26.6339 8.99128 26.494 9.28418 27.1803C9.83937 28.4787 11.0197 29.4929 12.4317 29.882L12.8689 30H20.0601H27.2514L27.6886 29.882C29.647 29.3443 31.011 27.7224 31.2077 25.7027C31.2645 25.1257 31.2645 20.7454 31.2077 20.4437C31.0284 19.4951 29.7782 19.2328 29.2317 20.0328C29.1661 20.1333 29.0962 20.3213 29.07 20.4743C29.0394 20.6404 29.0219 21.6503 29.0219 23.1978C29.0219 25.8907 29.0175 25.9213 28.7596 26.4372C28.4667 27.0186 27.8765 27.5213 27.2601 27.7137L26.9454 27.8142H20.0601H13.1749L12.8601 27.7137C12.2437 27.5213 11.6536 27.0186 11.3607 26.4415C11.1202 25.9607 11.1246 26.0393 11.1028 23.1148L11.0765 20.3825L10.9672 20.1727C10.7312 19.7049 10.2634 19.4776 9.74757 19.5781Z" fill="white"/>
</svg>
