<svg width="35" height="35" viewBox="0 0 25 25" fill="none" xmlns="http://www.w3.org/2000/svg">
<path d="M6.01871 0.25438C3.13626 0.743853 1.17836 2.32105 0.398831 4.78654C0.0181287 6.00116 0 6.36374 0 12.4912C0 18.6187 0.0181287 18.9813 0.398831 20.1959C0.707018 21.1567 1.03333 21.7187 1.72222 22.4982C3.57135 24.5649 5.38421 25 12.3275 25C19.2708 25 21.0836 24.5649 22.9328 22.4982C23.6216 21.7187 23.948 21.1567 24.2561 20.1959C24.6368 18.9813 24.655 18.6187 24.655 12.4912C24.655 6.36374 24.6368 6.00116 24.2561 4.78654C23.948 3.82573 23.6216 3.26374 22.9328 2.4842C21.0655 0.38128 19.2708 -0.0175502 12.1462 0.000578444C9.1731 0.0187071 6.90702 0.10935 6.01871 0.25438ZM19.017 2.70175C20.2678 3.08245 21.1018 3.77134 21.7181 4.9497L22.2983 6.05555V12.4912V18.9269L21.7181 20.0327C21.0836 21.2292 20.2678 21.9181 18.9263 22.317C17.8023 22.6433 6.85263 22.6433 5.72866 22.317C4.38714 21.9181 3.57135 21.2292 2.93684 20.0327L2.35673 18.9269V12.4912V6.05555L2.93684 4.9497C3.78889 3.31812 4.74971 2.75613 7.07018 2.50233C8.99182 2.30292 18.183 2.44795 19.017 2.70175Z" fill="white"/>
<path d="M17.784 4.89531C17.1314 5.65671 17.1676 6.36373 17.8747 6.94385C18.9624 7.86841 20.3945 7.25204 20.3945 5.87426C20.3945 4.44209 18.6904 3.80759 17.784 4.89531Z" fill="white"/>
<path d="M10.297 6.39999C7.30582 7.37894 5.49296 10.4427 6.05494 13.5971C6.30874 15.0836 6.88886 16.1532 7.9222 17.1322C9.29997 18.4193 10.1883 18.7456 12.3275 18.7456C13.814 18.7456 14.3035 18.6731 14.9924 18.3468C16.1163 17.8392 17.4941 16.5339 18.0017 15.5006C18.9082 13.6877 18.9082 11.2947 18.0017 9.48186C17.4941 8.44853 16.0982 7.14326 14.9924 6.63566C13.9228 6.16432 11.421 6.03742 10.297 6.39999ZM14.5935 9.17367C14.9742 9.4456 15.5181 10.0438 15.79 10.4971C16.2251 11.1678 16.3158 11.5123 16.3158 12.4912C16.3158 13.4702 16.2251 13.8146 15.79 14.4854C14.0859 17.2047 10.569 17.2047 8.86489 14.4854C8.4298 13.8146 8.33915 13.4702 8.33915 12.4912C8.33915 11.5123 8.4298 11.1678 8.86489 10.4971C10.1701 8.41227 12.7263 7.83215 14.5935 9.17367Z" fill="white"/>
</svg>
