<svg width="35" height="31" viewBox="0 0 29 25" fill="none" xmlns="http://www.w3.org/2000/svg">
<path d="M27.4932 0.0724894C27.227 0.13334 26.8619 0.270253 23.4314 1.62418C22.5567 1.97407 21.3701 2.43805 20.8072 2.65103C20.2444 2.87161 19.0654 3.33559 18.1831 3.68548C14.6766 5.06222 13.239 5.62509 11.6036 6.26402C10.6604 6.62912 9.74768 6.99423 9.57273 7.07029C9.39018 7.15396 9.23045 7.21481 9.20763 7.21481C9.1696 7.21481 8.447 7.49624 5.86086 8.51549C1.74585 10.128 0.703784 10.5616 0.460382 10.7213C0.133311 10.9495 -0.0492401 11.307 0.0116103 11.6113C0.0572482 11.8394 0.384319 12.235 0.696178 12.4403C0.787453 12.4936 2.37717 13.0488 4.2255 13.6726L7.5951 14.7983L8.78168 14.0377C9.43582 13.6193 10.2269 13.1097 10.5387 12.9043C10.8506 12.7066 11.2309 12.4708 11.3754 12.3871C11.5199 12.3034 11.9763 12.0144 12.3795 11.7558C12.7902 11.4972 14.0909 10.6681 15.2699 9.91505C19.286 7.36693 19.826 7.02465 20.2596 6.74322C20.4954 6.58349 20.8149 6.38572 20.9594 6.30205C21.1039 6.21838 21.4538 5.9978 21.7276 5.82285C23.2565 4.84164 23.4086 4.75797 23.6824 4.75037C23.9334 4.74276 23.9639 4.76558 23.9867 4.93292C24.0171 5.16871 23.7585 5.42733 21.0811 7.82331C20.716 8.15038 20.9213 7.96783 19.0198 9.68686C18.145 10.4855 16.9432 11.558 16.3576 12.0828C15.7719 12.6001 14.9124 13.3759 14.4484 13.7943C13.9844 14.2126 13.1249 14.9808 12.5392 15.5057C11.9459 16.0305 11.4591 16.5097 11.4591 16.5706C11.4591 16.6618 14.6005 19.1795 15.4068 19.7272C15.5893 19.8489 17.9549 21.6592 18.3732 21.9939C19.7728 23.112 22.0243 24.7778 22.2677 24.8766C22.8153 25.0896 23.3249 25.0288 23.7965 24.6789C24.2377 24.3594 24.3442 24.04 24.8386 21.5147C25.0972 20.1988 25.4395 18.4493 25.6068 17.6354C25.7742 16.8216 25.9947 15.7034 26.1012 15.1634C26.3142 14.0301 27.478 8.15799 28.0484 5.35126C28.2614 4.30159 28.4668 3.27474 28.5048 3.06937C28.5429 2.8564 28.657 2.24789 28.7634 1.70784C28.9156 0.909183 28.9384 0.6886 28.8699 0.475624C28.7254 0.0420642 28.231 -0.102456 27.4932 0.0724894Z" fill="white"/>
</svg>
