<svg width="35" height="35" viewBox="0 0 35 35" fill="none" xmlns="http://www.w3.org/2000/svg">
<path d="M15.7656 0.020804C12.5086 0.369769 9.52527 1.54667 6.86355 3.53783C5.99456 4.18786 4.20868 5.97374 3.55865 6.84273C1.77961 9.21706 0.684817 11.7556 0.192161 14.6431C0.0074145 15.7106 -0.06101 18.1738 0.0621541 19.2892C0.376907 22.2177 1.33485 24.8658 2.93598 27.2401L3.29179 27.767L2.19016 31.024C1.58802 32.8167 1.10221 34.2878 1.10905 34.2947C1.11589 34.3083 2.6007 33.8431 4.40711 33.2614C6.21352 32.6798 7.75307 32.2009 7.8215 32.2009C7.88992 32.2009 8.10888 32.2967 8.30047 32.4198C10.4901 33.7883 13.0218 34.6505 15.7108 34.9378C16.8262 35.061 19.2894 34.9926 20.3569 34.8078C23.2444 34.3152 25.7898 33.2204 28.1573 31.4414C29.0263 30.7913 30.8121 29.0054 31.4622 28.1364C33.2686 25.7211 34.3702 23.1278 34.8697 20.1239C35.0476 19.0428 35.0476 15.9364 34.8697 14.8552C34.3702 11.8514 33.2686 9.25812 31.4622 6.84273C30.8121 5.97374 29.0263 4.18786 28.1573 3.53783C25.7898 1.76563 23.2581 0.670837 20.3569 0.171338C19.6932 0.0550163 19.18 0.020804 17.7841 0.00711911C16.8262 -0.0065658 15.9161 0.000276656 15.7656 0.020804ZM12.0022 8.1428C12.1801 8.21806 12.2828 8.34123 12.4402 8.65598C12.837 9.43602 14.2945 13.0215 14.2945 13.2131C14.2945 13.5347 14.0276 13.9589 13.3639 14.7184C13.0149 15.1084 12.6933 15.4984 12.6523 15.5669C12.4675 15.9158 12.6454 16.3811 13.3297 17.3527C14.8282 19.4807 16.5388 20.9724 18.6942 22.0056C20.4048 22.8335 20.6169 22.7788 21.7185 21.2529C22.5122 20.1513 22.827 19.8913 23.2854 19.9939C23.7507 20.0966 27.7399 22.0398 27.9109 22.2519C28.1573 22.5462 27.9383 24.161 27.5414 24.9342C26.9735 26.0563 25.215 27.0896 23.6139 27.2401C21.9512 27.4043 17.9894 26.0221 15.6424 24.462C13.2681 22.8814 10.8253 20.295 8.92313 17.3596C7.96519 15.8816 7.38358 14.171 7.38358 12.8367C7.38358 11.3998 7.82834 10.1818 8.75207 9.0939C9.1763 8.58071 9.57316 8.30017 10.0727 8.14964C10.4695 8.01963 11.7012 8.01963 12.0022 8.1428Z" fill="white"/>
</svg>
